<?xml version="1.0"?>
<!DOCTYPE svg PUBLIC "-//W3C//DTD SVG 1.1//EN" "http://www.w3.org/Graphics/SVG/1.1/DTD/svg11.dtd">
<svg xmlns="http://www.w3.org/2000/svg" xmlns:xlink="http://www.w3.org/1999/xlink" id="svgfile" style="position:absolute; height:600px; width:800px;" version="1.1" viewBox="0 0 800 600">
  <image id="image0" in="0" out="1.1" src="logo.png" width="800"/>
  <image id="image1" in="4.2" out="98.0" xlink:href="presentation/default/slide-1.png" height="1200" width="1600" visibility="hidden" text="presentation/default/textfiles/slide-1.txt"/>
  <g class="canvas" id="canvas1" image="image1" display="none">
    <g class="shape" id="draw7.0" undo="-1" shape="line1" style="stroke:#000000; stroke-width:1; visibility:hidden; stroke-linecap: round; ">
      <line x1="614.3826322930801" y1="420.97649186256785" x2="612.2116689280869" y2="423.1464737793852"/>
      <line x1="612.2116689280869" y1="423.1464737793852" x2="612.2116689280869" y2="425.31645569620247"/>
      <line x1="612.2116689280869" y1="425.31645569620247" x2="612.2116689280869" y2="427.4864376130199"/>
      <line x1="612.2116689280869" y1="427.4864376130199" x2="610.0407055630936" y2="431.8264014466546"/>
      <line x1="610.0407055630936" y1="431.8264014466546" x2="607.8697421981004" y2="436.1663652802893"/>
      <line x1="607.8697421981004" y1="436.1663652802893" x2="605.6987788331072" y2="438.33634719710665"/>
      <line x1="605.6987788331072" y1="438.33634719710665" x2="603.527815468114" y2="444.84629294755877"/>
      <line x1="603.527815468114" y1="444.84629294755877" x2="599.1858887381276" y2="453.52622061482816"/>
      <line x1="599.1858887381276" y1="453.52622061482816" x2="597.0149253731344" y2="462.2061482820976"/>
      <line x1="597.0149253731344" y1="462.2061482820976" x2="590.5020352781547" y2="473.05605786618446"/>
      <line x1="590.5020352781547" y1="473.05605786618446" x2="581.8181818181819" y2="486.07594936708864"/>
      <line x1="581.8181818181819" y1="486.07594936708864" x2="568.7924016282225" y2="503.4358047016275"/>
      <line x1="568.7924016282225" y1="503.4358047016275" x2="555.7666214382632" y2="516.4556962025316"/>
      <line x1="555.7666214382632" y1="516.4556962025316" x2="542.7408412483039" y2="533.8155515370705"/>
      <line x1="542.7408412483039" y1="533.8155515370705" x2="529.7150610583446" y2="549.005424954792"/>
    </g>
    <g class="shape" id="draw7.1" undo="-1" shape="line2" style="stroke:#000000; stroke-width:1; visibility:hidden; stroke-linecap: round; ">
      <line x1="529.7150610583446" y1="549.005424954792" x2="516.6892808683854" y2="564.1952983725135"/>
      <line x1="516.6892808683854" y1="564.1952983725135" x2="505.8344640434193" y2="575.0452079566004"/>
      <line x1="505.8344640434193" y1="575.0452079566004" x2="494.9796472184532" y2="588.0650994575045"/>
      <line x1="494.9796472184532" y1="588.0650994575045" x2="486.29579375848033" y2="598.9150090415914"/>
      <line x1="486.29579375848033" y1="598.9150090415914" x2="481.9538670284939" y2="605.4249547920434"/>
      <line x1="481.9538670284939" y1="605.4249547920434" x2="475.4409769335143" y2="616.2748643761302"/>
      <line x1="475.4409769335143" y1="616.2748643761302" x2="471.0990502035278" y2="627.1247739602171"/>
      <line x1="471.0990502035278" y1="627.1247739602171" x2="466.7571234735414" y2="633.6347197106692"/>
      <line x1="466.7571234735414" y1="633.6347197106692" x2="464.5861601085482" y2="644.4846292947558"/>
      <line x1="464.5861601085482" y1="644.4846292947558" x2="464.5861601085482" y2="650.994575045208"/>
      <line x1="464.5861601085482" y1="650.994575045208" x2="460.24423337856166" y2="659.6745027124774"/>
      <line x1="460.24423337856166" y1="659.6745027124774" x2="460.24423337856166" y2="674.8643761301989"/>
      <line x1="460.24423337856166" y1="674.8643761301989" x2="458.0732700135685" y2="685.7142857142858"/>
      <line x1="458.0732700135685" y1="685.7142857142858" x2="458.0732700135685" y2="703.0741410488246"/>
      <line x1="458.0732700135685" y1="703.0741410488246" x2="458.0732700135685" y2="718.2640144665462"/>
    </g>
    <g class="shape" id="draw7.2" undo="-1" shape="line3" style="stroke:#000000; stroke-width:1; visibility:hidden; stroke-linecap: round; ">
      <line x1="458.0732700135685" y1="718.2640144665462" x2="458.0732700135685" y2="726.9439421338155"/>
      <line x1="458.0732700135685" y1="726.9439421338155" x2="458.0732700135685" y2="742.1338155515369"/>
      <line x1="458.0732700135685" y1="742.1338155515369" x2="462.4151967435549" y2="757.3236889692586"/>
      <line x1="462.4151967435549" y1="757.3236889692586" x2="466.7571234735414" y2="774.6835443037975"/>
      <line x1="466.7571234735414" y1="774.6835443037975" x2="468.92808683853457" y2="785.5334538878842"/>
      <line x1="468.92808683853457" y1="785.5334538878842" x2="475.4409769335143" y2="802.8933092224231"/>
      <line x1="475.4409769335143" y1="802.8933092224231" x2="481.9538670284939" y2="818.0831826401446"/>
      <line x1="481.9538670284939" y1="818.0831826401446" x2="488.46675712347354" y2="833.2730560578661"/>
      <line x1="488.46675712347354" y1="833.2730560578661" x2="501.4925373134329" y2="850.6329113924049"/>
      <line x1="501.4925373134329" y1="850.6329113924049" x2="508.00542740841246" y2="865.8227848101266"/>
      <line x1="508.00542740841246" y1="865.8227848101266" x2="521.0312075983718" y2="878.8426763110307"/>
      <line x1="521.0312075983718" y1="878.8426763110307" x2="534.0569877883311" y2="894.0325497287522"/>
      <line x1="534.0569877883311" y1="894.0325497287522" x2="549.2537313432836" y2="909.2224231464736"/>
      <line x1="549.2537313432836" y1="909.2224231464736" x2="566.6214382632293" y2="922.2423146473778"/>
      <line x1="566.6214382632293" y1="922.2423146473778" x2="583.9891451831751" y2="935.2622061482821"/>
    </g>
    <g class="shape" id="draw7.3" undo="-1" shape="line4" style="stroke:#000000; stroke-width:1; visibility:hidden; stroke-linecap: round; ">
      <line x1="583.9891451831751" y1="935.2622061482821" x2="603.527815468114" y2="948.2820976491862"/>
      <line x1="603.527815468114" y1="948.2820976491862" x2="629.5793758480326" y2="961.3019891500904"/>
      <line x1="629.5793758480326" y1="961.3019891500904" x2="655.6309362279511" y2="969.9819168173598"/>
      <line x1="655.6309362279511" y1="969.9819168173598" x2="683.853459972863" y2="983.001808318264"/>
      <line x1="683.853459972863" y1="983.001808318264" x2="714.246947082768" y2="993.8517179023507"/>
      <line x1="714.246947082768" y1="993.8517179023507" x2="748.9823609226594" y2="1002.5316455696203"/>
      <line x1="748.9823609226594" y1="1002.5316455696203" x2="779.3758480325645" y2="1006.871609403255"/>
      <line x1="779.3758480325645" y1="1006.871609403255" x2="814.1112618724559" y2="1011.2115732368896"/>
      <line x1="814.1112618724559" y1="1011.2115732368896" x2="844.504748982361" y2="1011.2115732368896"/>
      <line x1="844.504748982361" y1="1011.2115732368896" x2="877.0691994572593" y2="1011.2115732368896"/>
      <line x1="877.0691994572593" y1="1011.2115732368896" x2="905.2917232021709" y2="1009.0415913200724"/>
      <line x1="905.2917232021709" y1="1009.0415913200724" x2="922.6594301221165" y2="1002.5316455696203"/>
      <line x1="922.6594301221165" y1="1002.5316455696203" x2="935.685210312076" y2="996.0216998191681"/>
      <line x1="935.685210312076" y1="996.0216998191681" x2="942.1981004070556" y2="987.3417721518988"/>
      <line x1="942.1981004070556" y1="987.3417721518988" x2="946.540027137042" y2="976.4918625678118"/>
    </g>
    <g class="shape" id="draw7.4" undo="-1" shape="line5" style="stroke:#000000; stroke-width:1; visibility:hidden; stroke-linecap: round; ">
      <line x1="946.540027137042" y1="976.4918625678118" x2="948.7109905020354" y2="967.8119349005424"/>
      <line x1="948.7109905020354" y1="967.8119349005424" x2="948.7109905020354" y2="954.7920433996384"/>
      <line x1="948.7109905020354" y1="954.7920433996384" x2="948.7109905020354" y2="941.7721518987343"/>
      <line x1="948.7109905020354" y1="941.7721518987343" x2="948.7109905020354" y2="926.5822784810128"/>
      <line x1="948.7109905020354" y1="926.5822784810128" x2="950.8819538670286" y2="907.0524412296563"/>
      <line x1="950.8819538670286" y1="907.0524412296563" x2="950.8819538670286" y2="889.6925858951175"/>
      <line x1="950.8819538670286" y1="889.6925858951175" x2="950.8819538670286" y2="870.1627486437613"/>
      <line x1="950.8819538670286" y1="870.1627486437613" x2="953.0529172320219" y2="848.4629294755877"/>
      <line x1="953.0529172320219" y1="848.4629294755877" x2="955.2238805970151" y2="824.5931283905968"/>
      <line x1="955.2238805970151" y1="824.5931283905968" x2="959.5658073270014" y2="800.7233273056057"/>
      <line x1="959.5658073270014" y1="800.7233273056057" x2="963.9077340569878" y2="776.8535262206148"/>
      <line x1="963.9077340569878" y1="776.8535262206148" x2="966.078697421981" y2="752.9837251356239"/>
      <line x1="966.078697421981" y1="752.9837251356239" x2="966.078697421981" y2="724.7739602169983"/>
      <line x1="966.078697421981" y1="724.7739602169983" x2="966.078697421981" y2="703.0741410488246"/>
      <line x1="966.078697421981" y1="703.0741410488246" x2="963.9077340569878" y2="683.5443037974683"/>
    </g>
    <g class="shape" id="draw7.6" undo="-1" shape="line6" style="stroke:#000000; stroke-width:1; visibility:hidden; stroke-linecap: round; ">
      <line x1="963.9077340569878" y1="683.5443037974683" x2="957.3948439620083" y2="661.8444846292947"/>
      <line x1="957.3948439620083" y1="661.8444846292947" x2="946.540027137042" y2="642.3146473779385"/>
      <line x1="946.540027137042" y1="642.3146473779385" x2="931.3432835820896" y2="624.9547920433995"/>
      <line x1="931.3432835820896" y1="624.9547920433995" x2="913.9755766621438" y2="609.7649186256781"/>
      <line x1="913.9755766621438" y1="609.7649186256781" x2="898.7788331071913" y2="598.9150090415914"/>
      <line x1="898.7788331071913" y1="598.9150090415914" x2="881.4111261872457" y2="592.4050632911393"/>
      <line x1="881.4111261872457" y1="592.4050632911393" x2="870.5563093622794" y2="588.0650994575045"/>
      <line x1="870.5563093622794" y1="588.0650994575045" x2="855.359565807327" y2="588.0650994575045"/>
      <line x1="855.359565807327" y1="588.0650994575045" x2="840.1628222523744" y2="588.0650994575045"/>
      <line x1="840.1628222523744" y1="588.0650994575045" x2="824.966078697422" y2="588.0650994575045"/>
      <line x1="824.966078697422" y1="588.0650994575045" x2="801.0854816824967" y2="588.0650994575045"/>
      <line x1="801.0854816824967" y1="588.0650994575045" x2="770.6919945725916" y2="592.4050632911393"/>
      <line x1="770.6919945725916" y1="592.4050632911393" x2="733.7856173677069" y2="596.745027124774"/>
      <line x1="733.7856173677069" y1="596.745027124774" x2="686.0244233378562" y2="607.5949367088608"/>
      <line x1="686.0244233378562" y1="607.5949367088608" x2="623.0664857530529" y2="614.1048824593129"/>
    </g>
    <g class="shape" id="draw7.7" undo="-1" shape="line7" style="stroke:#000000; stroke-width:1; visibility:hidden; stroke-linecap: round; ">
      <line x1="623.0664857530529" y1="614.1048824593129" x2="553.59565807327" y2="620.6148282097649"/>
      <line x1="553.59565807327" y1="620.6148282097649" x2="479.7829036635007" y2="624.9547920433995"/>
      <line x1="479.7829036635007" y1="624.9547920433995" x2="421.1668928086838" y2="624.9547920433995"/>
      <line x1="421.1668928086838" y1="624.9547920433995" x2="360.3799185888738" y2="624.9547920433995"/>
      <line x1="360.3799185888738" y1="624.9547920433995" x2="310.44776119402985" y2="624.9547920433995"/>
      <line x1="310.44776119402985" y1="624.9547920433995" x2="273.5413839891452" y2="624.9547920433995"/>
      <line x1="273.5413839891452" y1="624.9547920433995" x2="245.31886024423338" y2="618.4448462929475"/>
      <line x1="245.31886024423338" y1="618.4448462929475" x2="227.95115332428765" y2="611.9349005424955"/>
      <line x1="227.95115332428765" y1="611.9349005424955" x2="219.26729986431482" y2="607.5949367088608"/>
      <line x1="219.26729986431482" y1="607.5949367088608" x2="214.92537313432837" y2="603.254972875226"/>
      <line x1="214.92537313432837" y1="603.254972875226" x2="210.5834464043419" y2="598.9150090415914"/>
      <line x1="210.5834464043419" y1="598.9150090415914" x2="206.2415196743555" y2="588.0650994575045"/>
      <line x1="206.2415196743555" y1="588.0650994575045" x2="206.2415196743555" y2="577.2151898734178"/>
      <line x1="206.2415196743555" y1="577.2151898734178" x2="197.55766621438264" y2="553.3453887884268"/>
      <line x1="197.55766621438264" y1="553.3453887884268" x2="191.044776119403" y2="525.1356238698011"/>
    </g>
    <g class="shape" id="draw7.8" undo="-1" shape="line8" style="stroke:#000000; stroke-width:1; visibility:hidden; stroke-linecap: round; ">
      <line x1="191.044776119403" y1="525.1356238698011" x2="182.36092265943012" y2="490.4159132007233"/>
      <line x1="182.36092265943012" y1="490.4159132007233" x2="178.0189959294437" y2="451.3562386980108"/>
      <line x1="178.0189959294437" y1="451.3562386980108" x2="171.50610583446405" y2="412.2965641952984"/>
      <line x1="171.50610583446405" y1="412.2965641952984" x2="167.16417910447763" y2="381.9168173598553"/>
      <line x1="167.16417910447763" y1="381.9168173598553" x2="162.82225237449117" y2="351.5370705244123"/>
      <line x1="162.82225237449117" y1="351.5370705244123" x2="162.82225237449117" y2="323.3273056057866"/>
      <line x1="162.82225237449117" y1="323.3273056057866" x2="164.99321573948438" y2="301.627486437613"/>
      <line x1="164.99321573948438" y1="301.627486437613" x2="171.50610583446405" y2="279.92766726943944"/>
      <line x1="171.50610583446405" y1="279.92766726943944" x2="178.0189959294437" y2="264.73779385171787"/>
      <line x1="178.0189959294437" y1="264.73779385171787" x2="188.87381275440976" y2="249.54792043399635"/>
      <line x1="188.87381275440976" y1="249.54792043399635" x2="204.07055630936227" y2="236.52802893309223"/>
      <line x1="204.07055630936227" y1="236.52802893309223" x2="217.09633649932155" y2="230.01808318264014"/>
      <line x1="217.09633649932155" y1="230.01808318264014" x2="236.6350067842605" y2="223.50813743218805"/>
      <line x1="236.6350067842605" y1="223.50813743218805" x2="258.3446404341927" y2="219.16817359855332"/>
      <line x1="258.3446404341927" y1="219.16817359855332" x2="288.73812754409767" y2="219.16817359855332"/>
    </g>
    <g class="shape" id="draw7.9" undo="-1" shape="line9" style="stroke:#000000; stroke-width:1; visibility:hidden; stroke-linecap: round; ">
      <line x1="288.73812754409767" y1="219.16817359855332" x2="321.3025780189959" y2="219.16817359855332"/>
      <line x1="321.3025780189959" y1="219.16817359855332" x2="369.06377204884666" y2="221.33815551537072"/>
      <line x1="369.06377204884666" y1="221.33815551537072" x2="421.1668928086838" y2="227.8481012658228"/>
      <line x1="421.1668928086838" y1="227.8481012658228" x2="486.29579375848033" y2="243.03797468354432"/>
      <line x1="486.29579375848033" y1="243.03797468354432" x2="560.1085481682496" y2="266.90777576853526"/>
      <line x1="560.1085481682496" y1="266.90777576853526" x2="631.7503392130258" y2="288.6075949367089"/>
      <line x1="631.7503392130258" y1="288.6075949367089" x2="696.8792401628223" y2="318.98734177215186"/>
      <line x1="696.8792401628223" y1="318.98734177215186" x2="753.3242876526458" y2="347.1971066907776"/>
      <line x1="753.3242876526458" y1="347.1971066907776" x2="801.0854816824967" y2="375.40687160940325"/>
      <line x1="801.0854816824967" y1="375.40687160940325" x2="837.9918588873812" y2="399.2766726943942"/>
      <line x1="837.9918588873812" y1="399.2766726943942" x2="859.7014925373135" y2="418.8065099457505"/>
      <line x1="859.7014925373135" y1="418.8065099457505" x2="874.8982360922661" y2="438.33634719710665"/>
      <line x1="874.8982360922661" y1="438.33634719710665" x2="885.753052917232" y2="455.6962025316456"/>
      <line x1="885.753052917232" y1="455.6962025316456" x2="892.2659430122117" y2="468.71609403254973"/>
      <line x1="892.2659430122117" y1="468.71609403254973" x2="894.4369063772049" y2="479.5660036166366"/>
    </g>
    <g class="shape" id="draw8.0" undo="-1" shape="line10" style="stroke:#000000; stroke-width:1; visibility:hidden; stroke-linecap: round; ">
      <line x1="894.4369063772049" y1="479.5660036166366" x2="896.6078697421981" y2="494.75587703435804"/>
      <line x1="896.6078697421981" y1="494.75587703435804" x2="896.6078697421981" y2="507.7757685352622"/>
      <line x1="896.6078697421981" y1="507.7757685352622" x2="896.6078697421981" y2="522.9656419529838"/>
      <line x1="896.6078697421981" y1="522.9656419529838" x2="890.0949796472185" y2="542.4954792043399"/>
      <line x1="890.0949796472185" y1="542.4954792043399" x2="879.2401628222525" y2="564.1952983725135"/>
      <line x1="879.2401628222525" y1="564.1952983725135" x2="866.214382632293" y2="588.0650994575045"/>
      <line x1="866.214382632293" y1="588.0650994575045" x2="840.1628222523744" y2="620.6148282097649"/>
      <line x1="840.1628222523744" y1="620.6148282097649" x2="805.4274084124831" y2="666.1844484629295"/>
      <line x1="805.4274084124831" y1="666.1844484629295" x2="768.5210312075984" y2="711.754068716094"/>
      <line x1="768.5210312075984" y1="711.754068716094" x2="727.2727272727273" y2="757.3236889692586"/>
      <line x1="727.2727272727273" y1="757.3236889692586" x2="681.6824966078698" y2="798.5533453887884"/>
      <line x1="681.6824966078698" y1="798.5533453887884" x2="644.776119402985" y2="837.613019891501"/>
      <line x1="644.776119402985" y1="837.613019891501" x2="610.0407055630936" y2="872.3327305605786"/>
      <line x1="610.0407055630936" y1="872.3327305605786" x2="588.3310719131615" y2="898.372513562387"/>
      <line x1="588.3310719131615" y1="898.372513562387" x2="573.1343283582089" y2="922.2423146473778"/>
    </g>
    <g class="shape" id="draw8.2" undo="-1" shape="line11" style="stroke:#000000; stroke-width:1; visibility:hidden; stroke-linecap: round; ">
      <line x1="573.1343283582089" y1="922.2423146473778" x2="564.450474898236" y2="943.9421338155515"/>
      <line x1="564.450474898236" y1="943.9421338155515" x2="557.9375848032564" y2="963.4719710669078"/>
      <line x1="557.9375848032564" y1="963.4719710669078" x2="557.9375848032564" y2="978.6618444846293"/>
      <line x1="557.9375848032564" y1="978.6618444846293" x2="557.9375848032564" y2="991.6817359855335"/>
      <line x1="557.9375848032564" y1="991.6817359855335" x2="564.450474898236" y2="1004.7016274864377"/>
      <line x1="564.450474898236" y1="1004.7016274864377" x2="573.1343283582089" y2="1011.2115732368896"/>
      <line x1="573.1343283582089" y1="1011.2115732368896" x2="583.9891451831751" y2="1022.0614828209766"/>
      <line x1="583.9891451831751" y1="1022.0614828209766" x2="592.6729986431479" y2="1028.5714285714284"/>
      <line x1="592.6729986431479" y1="1028.5714285714284" x2="605.6987788331072" y2="1035.0813743218805"/>
      <line x1="605.6987788331072" y1="1035.0813743218805" x2="623.0664857530529" y2="1041.5913200723328"/>
      <line x1="623.0664857530529" y1="1041.5913200723328" x2="638.2632293080054" y2="1052.4412296564194"/>
      <line x1="638.2632293080054" y1="1052.4412296564194" x2="659.9728629579375" y2="1058.9511754068715"/>
      <line x1="659.9728629579375" y1="1058.9511754068715" x2="690.3663500678426" y2="1069.8010849909583"/>
      <line x1="690.3663500678426" y1="1069.8010849909583" x2="733.7856173677069" y2="1080.6509945750454"/>
      <line x1="733.7856173677069" y1="1080.6509945750454" x2="792.4016282225238" y2="1091.500904159132"/>
    </g>
    <g class="shape" id="draw8.3" undo="-1" shape="line12" style="stroke:#000000; stroke-width:1; visibility:hidden; stroke-linecap: round; ">
      <line x1="792.4016282225238" y1="1091.500904159132" x2="866.214382632293" y2="1100.1808318264013"/>
      <line x1="866.214382632293" y1="1100.1808318264013" x2="942.1981004070556" y2="1106.6907775768536"/>
      <line x1="942.1981004070556" y1="1106.6907775768536" x2="1020.3527815468113" y2="1106.6907775768536"/>
      <line x1="1020.3527815468113" y1="1106.6907775768536" x2="1102.8493894165535" y2="1106.6907775768536"/>
      <line x1="1102.8493894165535" y1="1106.6907775768536" x2="1185.3459972862959" y2="1100.1808318264013"/>
      <line x1="1185.3459972862959" y1="1100.1808318264013" x2="1254.8168249660787" y2="1087.1609403254972"/>
      <line x1="1254.8168249660787" y1="1087.1609403254972" x2="1315.6037991858886" y2="1067.631103074141"/>
      <line x1="1315.6037991858886" y1="1067.631103074141" x2="1365.5359565807328" y2="1052.4412296564194"/>
      <line x1="1365.5359565807328" y1="1052.4412296564194" x2="1404.6132971506106" y2="1032.9113924050632"/>
      <line x1="1404.6132971506106" y1="1032.9113924050632" x2="1428.493894165536" y2="1013.381555153707"/>
      <line x1="1428.493894165536" y1="1013.381555153707" x2="1443.6906377204884" y2="993.8517179023507"/>
      <line x1="1443.6906377204884" y1="993.8517179023507" x2="1454.5454545454545" y2="969.9819168173598"/>
      <line x1="1454.5454545454545" y1="969.9819168173598" x2="1461.0583446404341" y2="941.7721518987343"/>
      <line x1="1461.0583446404341" y1="941.7721518987343" x2="1461.0583446404341" y2="913.5623869801086"/>
      <line x1="1461.0583446404341" y1="913.5623869801086" x2="1461.0583446404341" y2="883.1826401446656"/>
    </g>
    <g class="shape" id="draw8.4" undo="-1" shape="line13" style="stroke:#000000; stroke-width:1; visibility:hidden; stroke-linecap: round; ">
      <line x1="1461.0583446404341" y1="883.1826401446656" x2="1458.887381275441" y2="854.9728752260398"/>
      <line x1="1458.887381275441" y1="854.9728752260398" x2="1448.0325644504749" y2="820.253164556962"/>
      <line x1="1448.0325644504749" y1="820.253164556962" x2="1437.1777476255088" y2="776.8535262206148"/>
      <line x1="1437.1777476255088" y1="776.8535262206148" x2="1417.6390773405699" y2="731.2839059674503"/>
      <line x1="1417.6390773405699" y1="731.2839059674503" x2="1395.9294436906378" y2="690.0542495479203"/>
      <line x1="1395.9294436906378" y1="690.0542495479203" x2="1369.8778833107192" y2="648.8245931283907"/>
      <line x1="1369.8778833107192" y1="648.8245931283907" x2="1345.9972862957939" y2="611.9349005424955"/>
      <line x1="1345.9972862957939" y1="611.9349005424955" x2="1317.7747625508819" y2="581.5551537070525"/>
      <line x1="1317.7747625508819" y1="581.5551537070525" x2="1296.0651289009497" y2="557.6853526220615"/>
      <line x1="1296.0651289009497" y1="557.6853526220615" x2="1276.5264586160108" y2="538.1555153707053"/>
      <line x1="1276.5264586160108" y1="538.1555153707053" x2="1254.8168249660787" y2="520.7956600361664"/>
      <line x1="1254.8168249660787" y1="520.7956600361664" x2="1235.2781546811398" y2="507.7757685352622"/>
      <line x1="1235.2781546811398" y1="507.7757685352622" x2="1215.7394843962009" y2="494.75587703435804"/>
      <line x1="1215.7394843962009" y1="494.75587703435804" x2="1196.200814111262" y2="483.9059674502712"/>
      <line x1="1196.200814111262" y1="483.9059674502712" x2="1183.1750339213027" y2="473.05605786618446"/>
    </g>
    <g class="shape" id="draw8.5" undo="-1" shape="line14" style="stroke:#000000; stroke-width:1; visibility:hidden; stroke-linecap: round; ">
      <line x1="1183.1750339213027" y1="473.05605786618446" x2="1172.3202170963366" y2="470.8860759493671"/>
      <line x1="1172.3202170963366" y1="470.8860759493671" x2="1165.807327001357" y2="466.5461121157324"/>
      <line x1="1165.807327001357" y1="466.5461121157324" x2="1161.4654002713705" y2="464.37613019891506"/>
      <line x1="1161.4654002713705" y1="464.37613019891506" x2="1157.123473541384" y2="464.37613019891506"/>
      <line x1="1157.123473541384" y1="464.37613019891506" x2="1152.7815468113974" y2="464.37613019891506"/>
      <line x1="1152.7815468113974" y1="464.37613019891506" x2="1148.439620081411" y2="464.37613019891506"/>
      <line x1="1148.439620081411" y1="464.37613019891506" x2="1139.7557666214382" y2="464.37613019891506"/>
      <line x1="1139.7557666214382" y1="464.37613019891506" x2="1120.2170963364993" y2="473.05605786618446"/>
      <line x1="1120.2170963364993" y1="473.05605786618446" x2="1091.9945725915875" y2="488.2459312839059"/>
      <line x1="1091.9945725915875" y1="488.2459312839059" x2="1055.0881953867029" y2="516.4556962025316"/>
      <line x1="1055.0881953867029" y1="516.4556962025316" x2="1000.8141112618723" y2="557.6853526220615"/>
      <line x1="1000.8141112618723" y1="557.6853526220615" x2="931.3432835820896" y2="609.7649186256781"/>
      <line x1="931.3432835820896" y1="609.7649186256781" x2="853.1886024423338" y2="668.3544303797468"/>
      <line x1="853.1886024423338" y1="668.3544303797468" x2="768.5210312075984" y2="726.9439421338155"/>
      <line x1="768.5210312075984" y1="726.9439421338155" x2="677.3405698778834" y2="787.7034358047017"/>
    </g>
    <g class="shape" id="draw8.7" undo="-1" shape="line15" style="stroke:#000000; stroke-width:1; visibility:hidden; stroke-linecap: round; ">
      <line x1="677.3405698778834" y1="787.7034358047017" x2="594.8439620081411" y2="833.2730560578661"/>
      <line x1="594.8439620081411" y1="833.2730560578661" x2="521.0312075983718" y2="863.6528028933092"/>
      <line x1="521.0312075983718" y1="863.6528028933092" x2="464.5861601085482" y2="889.6925858951175"/>
      <line x1="464.5861601085482" y1="889.6925858951175" x2="414.6540027137042" y2="902.7124773960217"/>
      <line x1="414.6540027137042" y1="902.7124773960217" x2="384.2605156037992" y2="907.0524412296563"/>
      <line x1="384.2605156037992" y1="907.0524412296563" x2="364.72184531886023" y2="909.2224231464736"/>
      <line x1="364.72184531886023" y1="909.2224231464736" x2="356.0379918588874" y2="909.2224231464736"/>
      <line x1="356.0379918588874" y1="909.2224231464736" x2="351.69606512890095" y2="909.2224231464736"/>
      <line x1="351.69606512890095" y1="909.2224231464736" x2="349.52510176390774" y2="909.2224231464736"/>
      <line x1="349.52510176390774" y1="909.2224231464736" x2="343.0122116689281" y2="900.5424954792044"/>
      <line x1="343.0122116689281" y1="900.5424954792044" x2="334.32835820895525" y2="887.5226039783003"/>
      <line x1="334.32835820895525" y1="887.5226039783003" x2="325.64450474898234" y2="876.6726943942133"/>
      <line x1="325.64450474898234" y1="876.6726943942133" x2="316.9606512890095" y2="863.6528028933092"/>
      <line x1="316.9606512890095" y1="863.6528028933092" x2="306.1058344640434" y2="848.4629294755877"/>
      <line x1="306.1058344640434" y1="848.4629294755877" x2="288.73812754409767" y2="824.5931283905968"/>
    </g>
    <g class="shape" id="draw8.9" undo="-1" shape="line16" style="stroke:#000000; stroke-width:1; visibility:hidden; stroke-linecap: round; ">
      <line x1="288.73812754409767" y1="824.5931283905968" x2="273.5413839891452" y2="802.8933092224231"/>
      <line x1="273.5413839891452" y1="802.8933092224231" x2="256.17367706919947" y2="781.1934900542495"/>
      <line x1="256.17367706919947" y1="781.1934900542495" x2="247.4898236092266" y2="766.0036166365279"/>
      <line x1="247.4898236092266" y1="766.0036166365279" x2="240.97693351424695" y2="748.6437613019891"/>
      <line x1="240.97693351424695" y1="748.6437613019891" x2="236.6350067842605" y2="735.623869801085"/>
      <line x1="236.6350067842605" y1="735.623869801085" x2="232.2930800542741" y2="720.4339963833635"/>
      <line x1="232.2930800542741" y1="720.4339963833635" x2="230.12211668928083" y2="698.7341772151899"/>
      <line x1="230.12211668928083" y1="698.7341772151899" x2="230.12211668928083" y2="679.2043399638337"/>
      <line x1="230.12211668928083" y1="679.2043399638337" x2="232.2930800542741" y2="657.50452079566"/>
      <line x1="232.2930800542741" y1="657.50452079566" x2="238.80597014925377" y2="635.8047016274865"/>
      <line x1="238.80597014925377" y1="635.8047016274865" x2="251.83175033921304" y2="616.2748643761302"/>
      <line x1="251.83175033921304" y1="616.2748643761302" x2="267.02849389416554" y2="596.745027124774"/>
      <line x1="267.02849389416554" y1="596.745027124774" x2="288.73812754409767" y2="575.0452079566004"/>
      <line x1="288.73812754409767" y1="575.0452079566004" x2="310.44776119402985" y2="553.3453887884268"/>
      <line x1="310.44776119402985" y1="553.3453887884268" x2="340.8412483039349" y2="527.3056057866185"/>
    </g>
    <g class="shape" id="draw9.0" undo="-1" shape="line17" style="stroke:#000000; stroke-width:1; visibility:hidden; stroke-linecap: round; ">
      <line x1="340.8412483039349" y1="527.3056057866185" x2="377.7476255088195" y2="503.4358047016275"/>
      <line x1="377.7476255088195" y1="503.4358047016275" x2="412.483039348711" y2="486.07594936708864"/>
      <line x1="412.483039348711" y1="486.07594936708864" x2="468.92808683853457" y2="462.2061482820976"/>
      <line x1="468.92808683853457" y1="462.2061482820976" x2="523.202170963365" y2="444.84629294755877"/>
      <line x1="523.202170963365" y1="444.84629294755877" x2="583.9891451831751" y2="431.8264014466546"/>
      <line x1="583.9891451831751" y1="431.8264014466546" x2="642.6051560379918" y2="420.97649186256785"/>
      <line x1="642.6051560379918" y1="420.97649186256785" x2="699.0502035278155" y2="414.46654611211574"/>
      <line x1="699.0502035278155" y1="414.46654611211574" x2="748.9823609226594" y2="410.126582278481"/>
      <line x1="748.9823609226594" y1="410.126582278481" x2="785.8887381275441" y2="410.126582278481"/>
      <line x1="785.8887381275441" y1="410.126582278481" x2="818.4531886024423" y2="410.126582278481"/>
      <line x1="818.4531886024423" y1="410.126582278481" x2="848.8466757123474" y2="416.63652802893307"/>
      <line x1="848.8466757123474" y1="416.63652802893307" x2="870.5563093622794" y2="423.1464737793852"/>
      <line x1="870.5563093622794" y1="423.1464737793852" x2="885.753052917232" y2="429.6564195298372"/>
      <line x1="885.753052917232" y1="429.6564195298372" x2="892.2659430122117" y2="436.1663652802893"/>
      <line x1="892.2659430122117" y1="436.1663652802893" x2="896.6078697421981" y2="438.33634719710665"/>
    </g>
    <g class="shape" id="draw9.0" undo="-1" shape="line18" style="stroke:#000000; stroke-width:1; visibility:hidden; stroke-linecap: round; ">
      <line x1="896.6078697421981" y1="438.33634719710665" x2="896.6078697421981" y2="440.506329113924"/>
      <line x1="896.6078697421981" y1="440.506329113924" x2="896.6078697421981" y2="442.67631103074143"/>
      <line x1="896.6078697421981" y1="442.67631103074143" x2="898.7788331071913" y2="444.84629294755877"/>
      <line x1="898.7788331071913" y1="444.84629294755877" x2="903.1207598371777" y2="453.52622061482816"/>
    </g>
    <g class="shape" id="draw12.4" undo="-1" shape="rect1" style="stroke:#000000; stroke-width:1; visibility:hidden; fill:none">
      <rect x="408.14111261872455" y="397.1066907775769" width="119.40298507462688" height="141.0488245931284"/>
    </g>
    <g class="shape" id="draw13.8" undo="-1" shape="rect2" style="stroke:#000000; stroke-width:1; visibility:hidden; fill:none">
      <rect x="692.5373134328358" y="186.61844484629296" width="338.6702849389417" height="258.2278481012658"/>
    </g>
    <g class="shape" id="draw14.7" undo="-1" shape="rect3" style="stroke:#000000; stroke-width:1; visibility:hidden; fill:none">
      <rect x="445.0474898236092" y="236.52802893309223" width="201.89959294436903" height="227.8481012658228"/>
    </g>
    <g class="shape" id="draw15.9" undo="-1" shape="rect4" style="stroke:#000000; stroke-width:1; visibility:hidden; fill:none">
      <rect x="1089.8236092265943" y="201.80831826401445" width="154.13839891451835" height="169.25858951175408"/>
    </g>
    <g class="shape" id="draw17.0" undo="-1" shape="rect5" style="stroke:#000000; stroke-width:1; visibility:hidden; fill:none">
      <rect x="240.97693351424695" y="963.4719710669078" width="195.38670284938942" height="125.85895117540696"/>
    </g>
    <g class="shape" id="draw18.3" undo="-1" shape="rect6" style="stroke:#000000; stroke-width:1; visibility:hidden; fill:none">
      <rect x="366.89280868385345" y="637.9746835443037" width="232.29308005427413" height="273.41772151898743"/>
    </g>
    <g class="shape" id="draw19.4" undo="-1" shape="rect7" style="stroke:#000000; stroke-width:1; visibility:hidden; fill:none">
      <rect x="1196.200814111262" y="798.5533453887884" width="188.87381275440976" height="58.589511754068724"/>
    </g>
    <g class="shape" id="draw21.5" undo="-1" shape="rect8" style="stroke:#000000; stroke-width:1; visibility:hidden; fill:none">
      <rect x="1039.8914518317504" y="579.3851717902351" width="392.944369063772" height="358.04701627486435"/>
    </g>
    <g class="shape" id="draw22.9" undo="-1" shape="rect9" style="stroke:#000000; stroke-width:1; visibility:hidden; fill:none">
      <rect x="481.9538670284939" y="420.97649186256785" width="458.07327001356856" height="305.96745027124774"/>
    </g>
    <g class="shape" id="draw24.8" undo="-1" shape="rect10" style="stroke:#000000; stroke-width:1; visibility:hidden; fill:none">
      <rect x="156.30936227951153" y="108.49909584086801" width="201.8995929443691" height="234.3580470162749"/>
    </g>
    <g class="shape" id="draw26.5" undo="-1" shape="rect11" style="stroke:#000000; stroke-width:1; visibility:hidden; fill:none">
      <rect x="531.8860244233379" y="17.359855334538878" width="99.86431478968791" height="110.66907775768536"/>
    </g>
    <g class="shape" id="draw27.4" undo="-1" shape="rect12" style="stroke:#000000; stroke-width:1; visibility:hidden; fill:none">
      <rect x="1018.1818181818181" y="67.26943942133816" width="258.3446404341927" height="130.1989150090416"/>
    </g>
    <g class="shape" id="draw28.3" undo="-1" shape="rect13" style="stroke:#000000; stroke-width:1; visibility:hidden; fill:none">
      <rect x="1224.4233378561737" y="318.98734177215186" width="147.6255088195387" height="214.8282097649186"/>
    </g>
    <g class="shape" id="draw29.7" undo="-1" shape="rect14" style="stroke:#000000; stroke-width:1; visibility:hidden; fill:none">
      <rect x="1009.4979647218453" y="199.6383363471971" width="312.618724559023" height="221.33815551537072"/>
    </g>
    <g class="shape" id="draw82.2" undo="-1" shape="rect15" style="stroke:#000000; stroke-width:1; visibility:hidden; fill:none">
      <rect x="845.3900709219859" y="842.5531914893617" width="110.63829787234044" height="21.74940898345153"/>
    </g>
  </g>
</svg>
